<svg xmlns="http://www.w3.org/2000/svg" xmlns:xlink="http://www.w3.org/1999/xlink" width="180px" height="180px" viewBox="0 0 180 180" version="1.1">
<g id="surface1">
<path style=" stroke:none;fill-rule:nonzero;fill:#3b82f6;fill-opacity:1;" d="M 98.25 172.5 C 87.75 172.5 77.90625 170.5 68.71875 166.5 C 59.53125 162.5 51.53125 157.09375 44.71875 150.28125 C 37.90625 143.46875 32.5 135.46875 28.5 126.28125 C 24.5 117.09375 22.5 107.25 22.5 96.75 C 22.5 78.5 28.3125 62.40625 39.9375 48.46875 C 51.5625 34.53125 66.375 25.875 84.375 22.5 C 82.125 34.75 82.8125 46.78125 86.4375 58.59375 C 90.0625 70.40625 96.3125 80.75 105.1875 89.625 C 114.0625 98.5 124.40625 104.78125 136.21875 108.46875 C 148.03125 112.15625 160.125 112.875 172.5 110.625 C 169.25 128.625 160.625 143.4375 146.625 155.0625 C 132.625 166.6875 116.5 172.5 98.25 172.5 Z M 98.25 172.5 "/>
</g>
</svg>
